<svg width="197" height="187" viewBox="0 0 197 187" fill="none" xmlns="http://www.w3.org/2000/svg">
    <g filter="url(#filter0_d_40_34)">
        <path d="M96.0019 2.00226C29.4576 2.32992 2.5029 37.0463 2.00374 80.2507C1.72296 104.404 17.2749 125.249 41.1098 137.95C52.7309 146.173 38.8948 173.119 27.8197 180C27.8197 180 66.9726 177.332 77.7669 149.73C83.7257 150.604 89.856 151.057 96.1423 151.057C148.055 151.057 190 123.471 190 80.2507C190 37.0307 163.186 1.6746 96.0019 2.00226Z" fill="#E8E8E8"/>
        <path d="M96.0019 2.00226C29.4576 2.32992 2.5029 37.0463 2.00374 80.2507C1.72296 104.404 17.2749 125.249 41.1098 137.95C52.7309 146.173 38.8948 173.119 27.8197 180C27.8197 180 66.9726 177.332 77.7669 149.73C83.7257 150.604 89.856 151.057 96.1423 151.057C148.055 151.057 190 123.471 190 80.2507C190 37.0307 163.186 1.6746 96.0019 2.00226Z" stroke="#595959" stroke-width="3" stroke-miterlimit="10" stroke-linejoin="round"/>
    </g>
    <defs>
        <filter id="filter0_d_40_34" x="0.5" y="0.5" width="196" height="186" filterUnits="userSpaceOnUse" color-interpolation-filters="sRGB">
            <feFlood flood-opacity="0" result="BackgroundImageFix"/>
            <feColorMatrix in="SourceAlpha" type="matrix" values="0 0 0 0 0 0 0 0 0 0 0 0 0 0 0 0 0 0 127 0" result="hardAlpha"/>
            <feOffset dx="4" dy="4"/>
            <feGaussianBlur stdDeviation="0.5"/>
            <feComposite in2="hardAlpha" operator="out"/>
            <feColorMatrix type="matrix" values="0 0 0 0 0 0 0 0 0 0 0 0 0 0 0 0 0 0 0.25 0"/>
            <feBlend mode="normal" in2="BackgroundImageFix" result="effect1_dropShadow_40_34"/>
            <feBlend mode="normal" in="SourceGraphic" in2="effect1_dropShadow_40_34" result="shape"/>
        </filter>
    </defs>
</svg>
